<svg width="130" height="140" viewBox="0 0 130 140" fill="none" xmlns="http://www.w3.org/2000/svg">
<path d="M0.5 0H129.5V91.5141C129.5 118.024 108.01 139.514 81.5 139.514H48.5C21.9903 139.514 0.5 118.024 0.5 91.5141V0Z" fill="#A57718"/>
<path fill-rule="evenodd" clip-rule="evenodd" d="M34.4449 102.905C34.7022 102.88 35.4026 102.828 36.5533 102.744L38.6974 102.594C38.9887 102.578 39.1316 102.858 39.1316 103.442C39.1316 103.774 38.9798 103.948 38.676 103.964H38.1561C37.6575 103.993 37.1215 104.037 36.548 104.089C35.3115 104.173 34.6772 104.221 34.6522 104.237C34.5946 104.258 34.5345 104.271 34.4735 104.275C34.1519 104.275 33.9911 103.993 33.9911 103.429C33.9838 103.363 33.9901 103.296 34.0098 103.233C34.0295 103.17 34.062 103.112 34.1052 103.062C34.1484 103.013 34.2013 102.973 34.2605 102.946C34.3196 102.919 34.3837 102.905 34.4485 102.905H34.4449ZM44.4509 100.991C44.2961 100.959 44.1524 100.885 44.0346 100.777C43.9199 100.674 43.7835 100.6 43.6361 100.561C43.5896 100.561 43.545 100.623 43.5021 100.755C43.486 100.782 43.3055 101.319 42.9661 102.36C42.4441 103.882 42.1718 105.483 42.1602 107.096C42.1602 107.166 42.1709 107.329 42.1942 107.587L42.2263 107.976L42.2603 108.247C42.2508 108.528 42.2136 108.807 42.1495 109.08C42.1105 109.19 42.0364 109.284 41.9391 109.346C41.8419 109.408 41.7272 109.434 41.6135 109.421C41.3901 109.421 41.2561 109.289 41.1972 109.021C41.104 108.404 41.0663 107.779 41.0846 107.155C41.0846 105.999 41.0846 105.347 41.0739 105.195C41.0506 104.755 41.0381 104.343 41.0381 103.966C41.0381 103.849 41.0471 103.678 41.0667 103.446C41.0864 103.213 41.0935 103.041 41.0935 102.927C41.0973 102.884 41.0857 102.84 41.0607 102.804C41.0358 102.769 40.9993 102.744 40.9577 102.733C40.851 102.711 40.7535 102.655 40.6789 102.574C40.6044 102.493 40.5563 102.39 40.5414 102.279C40.5325 102.231 40.5289 101.843 40.5289 101.105C40.5289 99.4123 40.7737 98.5539 41.2633 98.5295C41.54 98.6058 41.8116 98.7006 42.0762 98.8134C42.1607 98.8767 42.2295 98.9593 42.2773 99.0547C42.3251 99.1501 42.3504 99.2556 42.3514 99.3629C42.3514 99.4252 42.2978 99.7292 42.1924 100.279C42.1269 100.571 42.0957 100.869 42.0995 101.169L42.1352 101.499L42.2924 101.033C42.3675 100.795 42.4872 100.449 42.6498 99.982C42.9655 99.104 43.3347 98.665 43.7576 98.665C43.8845 98.665 44.14 98.7767 44.5259 99.0075C45.0316 99.3098 45.2817 99.6688 45.2817 100.077C45.2838 100.313 45.1989 100.541 45.0441 100.715C44.9717 100.802 44.8815 100.871 44.7798 100.918C44.6782 100.965 44.5677 100.988 44.4562 100.986L44.4509 100.991ZM57.7767 104.004L57.6784 104.261C57.5472 104.843 57.3758 105.416 57.1656 105.973C56.946 106.558 56.6081 107.089 56.1739 107.53C55.6968 108.017 55.1284 108.399 54.5031 108.653C53.8778 108.908 53.2087 109.03 52.5361 109.012C51.4461 109.012 50.5867 108.665 49.9577 107.97C49.6798 107.672 49.4619 107.321 49.3166 106.936C49.1712 106.552 49.1013 106.142 49.1108 105.73C49.1108 104.399 49.5337 102.938 50.3794 101.348C51.3443 99.5241 52.4265 98.6125 53.626 98.6137C54.0878 98.6329 54.5432 98.7313 54.9732 98.905C55.4342 99.0771 55.6647 99.5167 55.6647 100.229C55.6647 101.878 54.9714 103.469 53.5849 105.003C53.0385 105.638 52.3863 106.169 51.6587 106.571C51.3014 106.754 51.1227 106.884 51.1227 106.95C51.1227 107.098 51.3746 107.27 51.8714 107.466C52.3212 107.608 52.7913 107.67 53.2615 107.649C53.7249 107.65 54.1832 107.551 54.6065 107.358C55.0299 107.164 55.4087 106.882 55.7183 106.528C56.0379 106.179 56.3041 105.782 56.5081 105.351C56.5081 105.336 56.7368 104.823 57.1656 103.805C57.2674 103.572 57.4086 103.457 57.5801 103.457C57.6338 103.453 57.6871 103.469 57.7297 103.503C57.7722 103.537 57.8011 103.586 57.8106 103.64C57.8424 103.762 57.8304 103.892 57.7767 104.006V104.004ZM53.5956 100.026C53.2007 100.026 52.7558 100.282 52.2573 100.821C51.8866 101.226 51.5727 101.682 51.3246 102.176C51.0303 102.642 50.7624 103.124 50.5224 103.622C50.5108 103.732 50.488 103.842 50.4545 103.948C50.3969 104.179 50.3599 104.416 50.3437 104.655C50.3382 104.875 50.346 105.096 50.3669 105.316C50.3973 105.622 50.4312 105.776 50.4777 105.776C50.6331 105.776 51.0244 105.572 51.6462 105.168C51.8678 105.025 52.3806 104.556 53.1811 103.755C53.5845 103.367 53.9041 102.897 54.1195 102.374C54.335 101.852 54.4413 101.289 54.4318 100.722C54.4318 100.262 54.1549 100.033 53.601 100.026H53.5956ZM68.8565 101.255C68.7042 101.364 68.5254 101.427 68.3401 101.438C67.8827 101.438 67.654 101.267 67.654 100.925C67.6537 100.892 67.6573 100.859 67.6647 100.826L67.7326 100.537C67.679 100.412 67.4038 100.354 66.9018 100.354C65.8366 100.376 64.7855 100.607 63.8053 101.035C63.4902 101.168 63.1905 101.336 62.9119 101.537C62.5009 101.825 62.2937 102.072 62.2937 102.281C62.2937 102.665 62.6742 102.955 63.4336 103.136C63.6516 103.189 64.486 103.354 65.9351 103.627C67.7112 103.963 68.5986 104.573 68.5974 105.459C68.5974 106.558 67.6367 107.5 65.7153 108.287C64.8268 108.677 63.8745 108.892 62.9083 108.921C62.4918 108.938 62.082 108.809 61.7469 108.554C61.6088 108.455 61.4796 108.342 61.361 108.219C61.1849 107.964 61.102 107.653 61.1269 107.342C61.1269 107.094 61.2663 106.893 61.5468 106.73C61.7799 106.594 62.0431 106.52 62.3115 106.517C62.4666 106.509 62.6203 106.55 62.7511 106.636C62.8819 106.722 62.9831 106.848 63.0405 106.996C63.0693 107.196 63.0729 107.399 63.0513 107.6C63.0513 107.649 63.1692 107.688 63.4086 107.712C63.4497 107.712 63.5283 107.726 63.6391 107.734C63.672 107.742 63.7055 107.748 63.7392 107.752C63.7996 107.747 63.8594 107.736 63.9178 107.719L65.0113 107.486C65.3498 107.431 65.6713 107.297 65.9512 107.094C66.1299 107.023 66.4229 106.776 66.8339 106.362C66.9554 106.194 67.0251 105.992 67.034 105.783C67.034 105.27 66.4193 104.932 65.19 104.768C63.5819 104.552 62.5778 104.371 62.1525 104.21C61.1995 103.857 60.7231 103.368 60.7231 102.744C60.7231 102.403 60.8928 102.05 61.2323 101.684C61.9291 100.927 62.919 100.321 64.193 99.8519C65.2941 99.4356 66.4572 99.2174 67.6308 99.2072C68.7135 99.2072 69.2555 99.615 69.2567 100.431C69.2698 100.595 69.2383 100.76 69.1658 100.908C69.0933 101.055 68.9826 101.179 68.8458 101.266L68.8565 101.255ZM82.5825 103.99C82.1215 104.671 81.8053 105.08 81.6248 105.217C81.2353 105.505 81.0405 105.653 81.0334 105.653C80.9052 105.838 80.8163 106.049 80.7725 106.272C80.6647 106.73 80.4663 107.161 80.1897 107.537C79.9132 107.914 79.5642 108.228 79.1644 108.461C78.6115 108.806 77.9799 108.995 77.333 109.01C76.7394 109.004 76.1601 108.823 75.6641 108.488C74.1704 107.529 73.4235 105.925 73.4235 103.678C73.4235 102.449 73.6397 101.451 74.0721 100.685C74.601 99.7219 75.4283 99.2401 76.5539 99.2401C76.7999 99.2574 77.0414 99.3162 77.2686 99.4142C77.2961 99.4313 77.3264 99.4431 77.358 99.449C77.4652 99.4038 77.6403 99.3159 77.8833 99.1852C78.0972 99.078 78.3333 99.0259 78.5712 99.0332C79.498 99.0332 80.1942 99.532 80.66 100.53C81.0257 101.304 81.2064 102.156 81.1871 103.015V103.453C81.1781 103.66 81.2121 103.768 81.2818 103.768C81.3377 103.71 81.3847 103.644 81.4211 103.572C81.4444 103.534 81.6087 103.341 81.9179 102.997C82.1189 102.748 82.2949 102.478 82.4432 102.193C82.5254 102.05 82.6129 101.975 82.7165 101.975C82.8202 101.975 82.8738 102.065 82.9631 102.239C83.0328 102.361 83.0766 102.497 83.0918 102.638C83.0918 103.034 82.9226 103.485 82.5843 103.993L82.5825 103.99ZM78.7838 100.396C78.4658 100.396 78.221 100.579 78.0405 100.945C77.8815 101.059 77.7278 101.178 77.576 101.301C77.4076 101.479 77.2896 101.7 77.2347 101.942C77.1391 102.228 77.0867 102.528 77.0793 102.83C77.0787 103.108 77.1477 103.381 77.2798 103.623C77.4118 103.865 77.6024 104.068 77.8333 104.213C78.1991 104.479 78.6359 104.622 79.084 104.624C79.7326 104.624 80.1025 104.547 80.2061 104.387C80.2687 104.312 80.3026 104.008 80.3026 103.471C80.3038 102.839 80.198 102.211 79.9899 101.616C79.7094 100.812 79.3056 100.407 78.7838 100.4V100.396ZM79.5915 106.032C78.8851 106.069 78.5873 106.087 78.6981 106.087C78.4068 106.067 78.1222 105.99 77.8601 105.858C77.4997 105.704 77.173 105.477 76.8991 105.192C76.6251 104.907 76.4094 104.568 76.2645 104.197C76.0523 103.679 75.9424 103.123 75.9411 102.561C75.9297 102.154 76.0469 101.753 76.2752 101.42C76.3944 101.279 76.4697 101.105 76.4914 100.92C76.4914 100.87 76.4324 100.845 76.3127 100.845C75.5587 100.845 75.0167 101.272 74.6868 102.127C74.4849 102.64 74.3823 103.189 74.3848 103.742C74.3761 104.309 74.4851 104.87 74.7044 105.39C74.9238 105.91 75.2485 106.376 75.657 106.757C76.2228 107.308 76.8261 107.584 77.467 107.584C77.8102 107.599 78.1514 107.523 78.4572 107.362C78.763 107.202 79.0227 106.962 79.2109 106.668L79.5111 106.212C79.5476 106.167 79.581 106.12 79.6111 106.071C79.6111 106.041 79.6004 106.027 79.5772 106.027L79.5915 106.032ZM90.2978 100.837C90.1472 100.806 90.0073 100.735 89.8922 100.63C89.7813 100.53 89.6491 100.458 89.5063 100.42C89.4616 100.42 89.417 100.48 89.3741 100.603C89.3598 100.629 89.1847 101.152 88.8506 102.162C88.3438 103.64 88.08 105.194 88.0697 106.761C88.0697 106.829 88.0822 106.988 88.1037 107.237L88.1341 107.615L88.168 107.878C88.1595 108.151 88.123 108.423 88.059 108.688C88.0216 108.795 87.9504 108.885 87.8567 108.945C87.7631 109.005 87.6525 109.032 87.5426 109.02C87.3246 109.02 87.1853 108.891 87.137 108.631C87.0465 108.032 87.01 107.424 87.028 106.818C87.028 105.697 87.028 105.061 87.0173 104.915C86.9941 104.488 86.9834 104.089 86.9834 103.722C86.9834 103.609 86.9834 103.442 87.0102 103.215C87.037 102.988 87.0352 102.823 87.0352 102.713C87.0392 102.671 87.0281 102.63 87.004 102.596C86.98 102.562 86.9446 102.539 86.9048 102.53C86.8011 102.508 86.7065 102.454 86.6339 102.375C86.5613 102.296 86.5143 102.196 86.4991 102.088C86.4991 102.043 86.4884 101.665 86.4884 100.947C86.4884 99.2988 86.7243 98.4708 87.2031 98.447C87.472 98.5215 87.7358 98.6139 87.9929 98.7236C88.0748 98.7849 88.1416 98.8651 88.1879 98.9577C88.2341 99.0502 88.2585 99.1526 88.2591 99.2566C88.2591 99.3171 88.2073 99.6138 88.1055 100.151C88.0417 100.434 88.0117 100.724 88.0161 101.015L88.0501 101.336L88.2037 100.883C88.2752 100.652 88.3913 100.317 88.545 99.8629C88.8523 99.0094 89.2079 98.5807 89.6171 98.5807C89.7404 98.5807 89.9887 98.6888 90.3622 98.9123C90.8535 99.2072 91.0983 99.5552 91.0983 99.9508C91.1005 100.18 91.0174 100.401 90.866 100.57C90.7962 100.655 90.7088 100.722 90.6102 100.768C90.5116 100.814 90.4042 100.836 90.2961 100.834L90.2978 100.837ZM100.733 101.361C100.692 101.459 100.623 101.542 100.535 101.599C100.448 101.656 100.345 101.684 100.241 101.68C100.021 101.669 99.8023 101.644 99.5855 101.605L98.8797 101.55L98.4438 101.515C97.956 101.478 97.5325 101.458 97.168 101.458C97.0376 101.458 96.9482 101.546 96.9071 101.722C96.885 101.772 96.8665 101.823 96.8517 101.876C96.7515 102.163 96.696 102.464 96.6874 102.768C96.6874 102.89 96.7171 103.577 96.7767 104.829C96.8141 105.632 97.0265 106.417 97.3985 107.126C97.5432 107.411 97.7183 107.554 97.922 107.554C98.6117 107.554 99.299 106.346 99.984 103.929C100.011 103.829 100.059 103.664 100.125 103.435C100.157 103.373 100.179 103.307 100.189 103.239C100.227 102.94 100.282 102.786 100.352 102.786C100.475 102.786 100.54 102.88 100.54 103.063C100.526 103.327 100.533 103.591 100.561 103.854C100.604 104.078 100.629 104.304 100.636 104.532C100.636 105.222 100.379 106.136 99.8732 107.279C99.7839 107.476 99.4485 107.933 98.8672 108.651C98.8243 108.705 98.7529 108.787 98.6492 108.904C98.4174 109.109 98.1274 109.233 97.822 109.256C97.137 109.256 96.5855 108.629 96.1674 107.375C95.8076 106.199 95.6374 104.971 95.6635 103.739C95.6868 103.078 95.6939 102.565 95.6939 102.195V101.841C95.6948 101.786 95.6984 101.731 95.7046 101.676V101.561C95.7046 101.497 95.6832 101.462 95.6421 101.462C95.5721 101.464 95.5023 101.471 95.433 101.482C95.3812 101.482 95.2704 101.493 95.0953 101.511C94.9864 101.526 94.7719 101.565 94.4503 101.623C94.2496 101.666 94.0459 101.693 93.841 101.702C93.5659 101.702 93.4283 101.519 93.4283 101.167C93.4264 101.055 93.4523 100.943 93.5035 100.844C93.5547 100.744 93.6296 100.659 93.7213 100.597L93.7445 100.495C93.7749 100.383 93.8347 100.282 93.9172 100.203C93.9998 100.124 94.102 100.07 94.2127 100.046C94.5261 99.9363 94.8536 99.8745 95.1847 99.8629C95.2298 99.8657 95.274 99.8768 95.3151 99.8959L95.4223 99.8519C95.5671 99.8354 95.7314 99.8171 95.9137 99.7878C95.9661 99.5815 96.0852 98.9709 96.271 97.9561C96.4062 97.1299 96.5985 96.3146 96.8464 95.5163C96.8982 95.3624 97.0358 95.2873 97.2591 95.2873C97.6236 95.2873 97.8059 95.5694 97.8059 96.1336C97.8153 97.2731 97.7057 98.4103 97.4789 99.5259C97.4533 99.5682 97.4307 99.6123 97.411 99.6578C97.411 99.7182 97.4718 99.7512 97.5647 99.7659C97.5933 99.7659 98.0364 99.7933 98.8958 99.8226C99.9786 99.8684 100.59 99.9234 100.727 100.006C100.815 100.054 100.887 100.127 100.935 100.216C100.983 100.305 101.005 100.406 100.999 100.508C100.966 100.813 100.874 101.109 100.727 101.378L100.733 101.361ZM96.0709 29.0092C96.0709 29.0092 92.769 41.9135 81.4533 38.2501C75.037 35.6619 63.7052 33.0297 53.1864 33.8613C46.3359 34.4108 38.9655 36.3616 34.4342 40.9463C32.4133 42.9905 26.2025 54.0283 31.7397 62.9982C33.8946 67.07 36.4318 70.9532 41.1418 72.7556C42.1477 72.6201 44.1346 71.8031 46.9792 70.3744C51.8481 67.9199 58.9613 63.5477 65.71 59.0179C75.7552 52.2882 85.7022 42.7158 86.4187 42.7158C87.632 42.7158 72.0066 58.0764 61.9399 63.8792C53.1114 68.9695 42.4336 74.9298 42.4336 74.9298C42.4336 74.9298 38.3955 76.5784 34.9291 81.8115C31.6272 86.7993 30.8606 91.7192 30.6319 97.5312C30.4658 101.735 30.7052 103.895 31.0197 106.069C31.4699 109.159 33.2406 110.344 33.271 109.915C32.5564 106.198 32.1049 102.433 31.9202 98.6485C31.5468 90.2227 34.1054 80.4378 42.7999 76.3018C42.7999 76.3018 50.2883 93.833 68.5563 91.2539C72.4622 90.4407 85.5968 85.6508 88.8309 67.2587C91.2556 55.0449 88.7094 54.4771 90.4211 46.0348C92.1329 37.5925 96.1388 36.0081 96.0656 29L96.0709 29.0092ZM28 86.9568C30.3067 88.336 30.5944 90.437 30.5944 90.437C30.5944 90.437 30.9518 90.2923 30.162 93.1955C30.162 91.1679 28 86.9568 28 86.9568Z" fill="white"/>
</svg>
